<svg xmlns="http://www.w3.org/2000/svg" xmlns:xlink="http://www.w3.org/1999/xlink" width="500" zoomAndPan="magnify" viewBox="0 0 375 374.999991" height="500" preserveAspectRatio="xMidYMid meet" version="1.0"><defs><clipPath id="0bebdd8234"><path d="M 0 68.4375 L 375 68.4375 L 375 306.9375 L 0 306.9375 Z M 0 68.4375 " clip-rule="nonzero"/></clipPath></defs><g clip-path="url(#0bebdd8234)"><path fill="#9d511e" d="M 1.097656 185.777344 C 0.578125 184.351562 0.996094 182.605469 0.996094 180.984375 C 1.902344 180.660156 0.894531 179.914062 1.253906 179.558594 C 2.066406 178.847656 1.023438 178.460938 1.058594 177.945312 C 1.09375 177.167969 1.382812 176.390625 1.578125 175.617188 C 2.09375 173.640625 1.835938 171.46875 3.128906 169.695312 C 3.027344 167.523438 4.617188 166.128906 5.523438 164.421875 C 6.398438 162.804688 6.980469 161.058594 7.886719 159.433594 C 8.308594 158.621094 9.179688 158.074219 9.761719 157.363281 C 10.148438 156.875 10.574219 156.292969 10.601562 155.746094 C 10.636719 155.324219 10.019531 154.90625 9.789062 154.417969 C 9.402344 153.605469 8.882812 152.894531 8.949219 151.894531 C 9.078125 149.921875 8.785156 147.945312 10.019531 146.039062 C 10.601562 145.132812 10.960938 143.710938 10.703125 142.347656 C 10.507812 141.246094 10.996094 140.277344 11.773438 139.402344 C 12.84375 138.171875 14.359375 137.460938 15.207031 136.003906 C 17.472656 135.253906 19.316406 133.636719 21.550781 132.832031 C 24.304688 131.828125 27.121094 131.023438 29.449219 129.175781 C 30.261719 128.527344 31.261719 128.75 32.101562 128.945312 C 34.753906 129.527344 35.464844 129.398438 38.25 128.945312 C 40.191406 128.652344 42.269531 128.621094 44.144531 129.074219 C 45.472656 129.433594 46.894531 128.84375 47.902344 129.5 C 49.128906 130.246094 50.292969 129.792969 51.429688 129.953125 C 51.6875 129.988281 52.046875 129.914062 52.175781 129.757812 C 54.089844 127.753906 56.90625 127.199219 58.972656 125.453125 C 60.332031 124.355469 61.691406 123.347656 62.566406 121.761719 C 63.121094 120.753906 63.894531 119.785156 64.738281 118.980469 C 66.066406 117.75 65.707031 115.941406 66.519531 114.574219 C 65.125 112.988281 66.417969 111.40625 66.90625 110.078125 C 67.785156 107.777344 68.71875 105.386719 70.824219 103.730469 C 72.539062 102.339844 73.472656 100.371094 74.582031 98.457031 C 76.425781 95.289062 78.238281 91.984375 81.671875 90.007812 C 82.550781 89.519531 83.226562 88.613281 83.871094 87.808594 C 85.230469 86.128906 86.71875 84.667969 88.628906 83.597656 C 89.40625 83.175781 90.023438 82.464844 89.921875 81.300781 C 89.726562 79.582031 90.152344 78.066406 92.027344 77.347656 C 92.515625 77.183594 92.773438 76.441406 93.257812 76.210938 C 94.03125 75.824219 94.742188 75.113281 95.714844 75.308594 C 98.171875 75.757812 99.824219 74.171875 101.605469 72.980469 C 103.222656 71.84375 104.875 70.78125 106.460938 69.578125 C 107.304688 68.933594 108.179688 69.089844 109.085938 68.996094 C 109.539062 68.960938 110.285156 69.421875 110.378906 68.445312 L 115.496094 68.445312 C 115.753906 68.640625 115.984375 68.832031 116.207031 69.027344 C 116.371094 68.832031 116.5 68.640625 116.660156 68.445312 L 118.339844 68.445312 L 118.339844 68.730469 C 120.667969 68.769531 121.902344 70.515625 123.261719 71.964844 C 124.363281 73.128906 124.589844 73.386719 125.785156 72.648438 C 127.402344 71.640625 129.15625 71.742188 130.863281 71.9375 C 131.613281 72.039062 132.351562 72.554688 133.191406 72.425781 C 133.808594 72.324219 134.355469 71.90625 134.9375 71.90625 C 137.136719 71.84375 139.34375 71.714844 141.507812 71.90625 C 143.160156 72.074219 144.941406 72.332031 146.390625 73.070312 C 147.980469 73.914062 149.496094 73.332031 151.054688 73.589844 C 152.644531 72.359375 154.519531 73.292969 156.234375 73.035156 C 156.53125 72.972656 156.882812 73.265625 157.207031 73.394531 C 159.117188 74.234375 161.09375 74.789062 163.191406 74.726562 C 164.226562 74.6875 165.296875 74.824219 166.332031 74.6875 C 167.496094 74.523438 168.4375 75.113281 169.5 75.308594 C 170.570312 75.5 171.699219 74.855469 172.734375 75.757812 C 173.121094 76.117188 174.027344 75.925781 174.675781 75.859375 C 177.195312 75.5 179.660156 76.21875 182.117188 76.542969 C 183.640625 76.738281 185.257812 77.160156 186.808594 77.511719 C 188.363281 77.902344 190.078125 77.835938 191.667969 78.160156 C 193.644531 78.613281 195.621094 79.195312 197.394531 80.097656 C 199.59375 81.234375 202.023438 81.300781 204.257812 82.105469 C 204.679688 82.269531 205.160156 82.269531 205.550781 82.492188 C 207.71875 83.65625 210.175781 84.082031 212.449219 85.050781 C 213.257812 85.375 214 85.539062 214.8125 85.539062 C 216.816406 85.539062 218.792969 85.640625 220.796875 85.539062 C 224.683594 85.28125 228.433594 86.351562 232.285156 86.738281 C 233.488281 86.839844 234.714844 87.292969 235.785156 87.875 C 236.984375 88.558594 238.214844 88.816406 239.542969 89.167969 C 243.136719 90.042969 246.636719 91.429688 250.386719 91.855469 C 251.292969 91.957031 252.167969 92.601562 253.039062 92.953125 C 255.207031 93.792969 257.40625 94.375 259.707031 94.765625 C 261.8125 95.125 264.242188 94.996094 266.015625 96.703125 C 266.4375 97.128906 267.503906 97.0625 268.183594 96.898438 C 269.449219 96.605469 270.742188 96.214844 272.035156 96.410156 C 273.328125 96.605469 274.59375 97.027344 275.824219 97.507812 C 277.441406 98.15625 279.222656 98 280.773438 98.671875 C 282.167969 99.292969 283.621094 99.125 285.078125 99.226562 C 286.148438 99.328125 287.339844 99.355469 288.246094 99.84375 C 290.675781 101.046875 293.390625 101.136719 295.886719 102.078125 C 297.019531 102.503906 298.183594 102.921875 299.320312 103.34375 C 299.421875 103.378906 299.449219 103.539062 299.550781 103.539062 C 301.527344 103.640625 303.308594 104.636719 305.246094 104.867188 C 306.347656 104.996094 307.417969 105.0625 308.417969 105.515625 C 310.652344 106.519531 312.980469 106.910156 315.378906 107.261719 C 316.996094 107.492188 318.546875 108.332031 320.105469 108.914062 C 320.59375 109.078125 321.113281 109.496094 321.566406 109.429688 C 323.863281 109.136719 325.777344 110.371094 327.875 110.824219 C 328.390625 110.925781 328.945312 111.25 329.398438 111.148438 C 331.695312 110.757812 333.703125 111.792969 335.707031 112.503906 C 337.421875 113.085938 339.140625 113.863281 340.785156 114.640625 C 341.691406 115.027344 342.597656 115.710938 343.472656 115.644531 C 344.832031 115.582031 345.707031 116.226562 346.707031 116.875 C 349.460938 118.621094 352.40625 120.078125 354.574219 122.664062 C 355.15625 123.378906 355.546875 124.253906 356.515625 124.707031 C 357.390625 125.128906 358.101562 125.90625 358.878906 126.554688 C 359.042969 126.71875 359.136719 126.976562 359.265625 127.171875 C 361.113281 130.40625 362.859375 133.675781 364.773438 136.851562 C 365.453125 138.015625 365.324219 139.539062 366.554688 140.441406 C 366.746094 140.570312 366.617188 141.125 366.683594 141.476562 C 367.199219 144.746094 367.523438 148.042969 368.789062 151.15625 C 368.851562 151.320312 368.953125 151.480469 368.953125 151.644531 C 368.851562 154.039062 369.664062 156.273438 370.023438 158.605469 C 370.449219 161.230469 370.929688 163.882812 370.707031 166.605469 C 370.578125 168.320312 370.707031 170.039062 370.671875 171.75 C 370.636719 172.527344 370.992188 173.402344 370.183594 174.113281 C 369.953125 174.34375 369.953125 175.121094 370.144531 175.472656 C 370.828125 176.699219 370.921875 177.835938 370.117188 179 C 371.023438 180.136719 370.21875 181.6875 370.765625 182.722656 C 371.574219 184.246094 370.636719 186.054688 371.800781 187.414062 C 371.570312 188.640625 372.09375 189.871094 372.640625 190.746094 C 373.320312 191.882812 372.25 193.269531 373.515625 194.148438 C 373.644531 194.210938 373.550781 194.664062 373.515625 194.957031 C 373.351562 197.546875 373.875 200.039062 374.652344 202.46875 C 374.714844 202.695312 374.585938 203.019531 374.550781 203.277344 C 374.292969 203.148438 373.996094 203.019531 373.773438 202.855469 C 373.480469 202.597656 373.191406 202.339844 372.964844 202.042969 C 372.703125 201.65625 373.414062 200.816406 372.539062 200.816406 C 372.28125 200.816406 371.699219 202.109375 371.855469 202.367188 C 373.085938 204.113281 371.625 206.28125 372.925781 207.933594 C 372.992188 208 372.964844 208.128906 372.964844 208.230469 C 372.511719 211.5 373.710938 214.667969 373.546875 217.9375 C 373.507812 218.90625 373.054688 220.042969 374.0625 220.847656 C 374.164062 220.949219 374.0625 221.234375 374.097656 221.402344 C 374.226562 222.210938 372.804688 222.988281 374.097656 223.792969 C 373.453125 224.570312 374.097656 225.382812 374.097656 226.15625 C 374.097656 228.808594 374.097656 231.46875 374.0625 234.15625 C 374.0625 234.347656 373.636719 234.578125 373.445312 234.800781 C 373.277344 234.609375 372.992188 234.441406 372.957031 234.25 C 372.890625 233.796875 372.957031 233.308594 372.917969 232.824219 C 372.882812 231.5625 373.148438 230.304688 372.402344 229.066406 C 372.078125 228.484375 372.238281 227.609375 372.171875 226.898438 C 371.398438 227.542969 371.8125 228.421875 371.847656 229.160156 C 371.886719 230.390625 372.207031 231.65625 372.367188 232.917969 C 372.53125 234.082031 371.980469 235.347656 372.917969 236.382812 C 372.984375 236.484375 372.726562 236.835938 372.625 237.066406 C 372.332031 236.898438 371.847656 236.742188 371.847656 236.578125 C 371.914062 233.277344 370.457031 230.332031 369.652344 227.222656 C 369.519531 226.667969 369.585938 226.121094 369.519531 225.566406 C 369.484375 225.402344 369.328125 225.246094 369.226562 225.117188 C 369.125 225.246094 368.96875 225.410156 368.96875 225.566406 C 368.867188 227.933594 368.902344 230.324219 369.84375 232.597656 C 369.972656 232.855469 369.972656 233.242188 369.878906 233.535156 C 369.816406 233.796875 369.492188 233.960938 369.296875 234.15625 C 369.199219 233.960938 368.976562 233.765625 368.976562 233.574219 C 368.808594 231.855469 368.035156 230.203125 368.355469 228.390625 C 368.394531 228.261719 368.191406 228.097656 368.097656 227.96875 C 367.996094 228.097656 367.804688 228.328125 367.839844 228.421875 C 368.164062 229.105469 367.128906 229.585938 367.582031 230.332031 C 367.839844 230.71875 367.128906 231.273438 367.773438 231.789062 C 368.003906 231.984375 367.875 232.695312 367.773438 233.148438 C 367.773438 233.34375 367.453125 233.601562 367.285156 233.636719 C 367.09375 233.636719 366.734375 233.40625 366.703125 233.25 C 366.605469 232.761719 366.605469 232.28125 366.675781 231.828125 C 367.101562 229.65625 365.992188 227.617188 366.09375 225.519531 C 366.09375 225.390625 365.898438 225.289062 365.769531 225.160156 C 365.707031 225.324219 365.539062 225.480469 365.539062 225.648438 C 365.347656 228.492188 365.117188 231.375 364.988281 234.226562 C 364.949219 234.84375 364.691406 235.554688 365.347656 236.074219 C 365.347656 236.074219 365.179688 236.433594 365.023438 236.496094 C 364.894531 236.5625 364.570312 236.460938 364.570312 236.367188 C 364.441406 236.007812 364.375 235.65625 364.40625 235.296875 C 364.503906 233.257812 364.238281 231.28125 363.304688 229.46875 C 362.980469 228.851562 364.246094 228.335938 363.304688 227.625 C 362.980469 227.363281 363.269531 226.359375 363.242188 225.683594 C 363.242188 225.519531 363.113281 225.359375 363.046875 225.195312 C 362.917969 225.296875 362.6875 225.390625 362.6875 225.453125 C 362.882812 227.234375 362.492188 228.917969 362.132812 230.632812 C 362.070312 230.894531 362.234375 231.34375 362.097656 231.476562 C 361.453125 232.027344 363.390625 232.867188 362.0625 233 C 361.058594 233.097656 361.574219 231.796875 361.574219 231.1875 C 361.507812 227.207031 361.539062 223.226562 361.507812 219.246094 C 361.507812 218.921875 361.316406 218.628906 361.1875 218.339844 C 361.121094 218.597656 360.992188 218.855469 360.957031 219.117188 C 360.957031 220.445312 360.992188 221.765625 360.921875 223.097656 C 360.921875 223.484375 360.5625 223.871094 360.367188 224.261719 C 360.332031 224.359375 360.238281 224.453125 360.171875 224.453125 C 360.042969 224.390625 359.914062 224.324219 359.8125 224.195312 C 359.785156 224.160156 359.8125 224.03125 359.8125 223.9375 C 360.074219 220.769531 358.972656 217.785156 358.648438 214.710938 C 358.585938 213.835938 358.777344 210.082031 359.039062 209.078125 C 359.101562 208.785156 359.074219 208.429688 359 208.109375 C 358.9375 207.683594 358.550781 207.101562 358.707031 206.84375 C 359.484375 205.484375 359.132812 203.867188 359.777344 202.4375 C 360.425781 201.082031 360.394531 199.492188 360.8125 198.035156 C 361.171875 196.898438 361.265625 195.578125 361.496094 194.339844 C 361.753906 193.074219 361.726562 191.753906 362.207031 190.617188 C 362.5 189.9375 362.398438 189.648438 362.269531 189 C 362.078125 188.058594 362.464844 186.933594 362.824219 185.960938 C 363.894531 183.210938 364.414062 180.394531 364.375 177.484375 C 364.375 176.320312 363.953125 175.054688 364.929688 173.984375 C 365.03125 173.882812 364.929688 173.625 364.929688 173.429688 C 365.058594 172.265625 363.894531 171.261719 364.828125 169.839844 C 365.410156 168.996094 364.929688 167.445312 364.929688 166.210938 L 364.929688 158.535156 C 364.929688 158.242188 365.03125 157.917969 364.929688 157.660156 C 364.734375 157.171875 364.375 156.328125 364.183594 156.328125 C 363.371094 156.457031 363.824219 157.207031 363.824219 157.660156 C 363.789062 158.339844 363.65625 159.054688 364.144531 159.792969 C 364.46875 160.246094 364.183594 161.152344 364.082031 161.863281 C 363.886719 163.644531 363.140625 165.324219 363.207031 167.171875 C 363.207031 167.882812 363.953125 168.4375 363.304688 169.34375 C 362.882812 169.894531 363.339844 170.996094 363.175781 171.835938 C 363.074219 172.519531 362.816406 173.257812 362.398438 173.777344 C 361.429688 174.847656 361.105469 176.011719 360.878906 177.433594 C 360.582031 179.050781 360.164062 180.730469 358.808594 181.996094 C 358.097656 182.644531 357.449219 183.484375 357.027344 184.359375 C 356.3125 185.71875 355.890625 187.140625 354.789062 188.3125 C 354.367188 188.765625 354.273438 189.605469 354.109375 190.289062 C 353.621094 192.457031 352.6875 194.332031 350.644531 195.496094 C 349.09375 196.375 348.511719 197.761719 348.34375 199.542969 C 348.152344 202 348.703125 204.363281 349.09375 206.699219 C 349.351562 208.15625 350.0625 209.675781 350.644531 211.167969 C 351.808594 214.179688 352.816406 217.285156 354.007812 220.292969 C 354.496094 221.558594 354.65625 223.011719 355.171875 224.375 C 355.558594 225.34375 356.371094 226.058594 356.660156 227.191406 C 356.984375 228.523438 357.148438 229.910156 356.851562 231.015625 C 356.363281 232.695312 356.105469 234.117188 356.917969 235.707031 C 357.113281 236.09375 356.945312 236.648438 356.945312 237.128906 C 356.847656 240.980469 358.082031 244.609375 358.859375 248.296875 C 359.023438 249.042969 359.347656 249.589844 358.859375 250.273438 C 358.304688 251.019531 359.117188 252.148438 358.109375 252.765625 C 359.210938 253.320312 357.527344 254.03125 358.339844 254.835938 C 358.828125 255.351562 358.46875 256.644531 358.828125 257.421875 C 359.707031 259.269531 358.957031 261.113281 359.21875 262.953125 C 357.988281 263.664062 359.050781 264.347656 359.21875 265.058594 C 359.835938 267.617188 360.546875 270.140625 360.382812 272.828125 C 360.25 274.671875 360.351562 276.484375 361.257812 278.164062 C 361.488281 278.523438 361.488281 279.042969 361.488281 279.496094 C 361.488281 280.308594 361.71875 281.433594 361.257812 281.921875 C 360.25 282.996094 362.035156 283.476562 361.550781 284.445312 C 361.191406 285.128906 361.910156 286.128906 361.0625 286.773438 C 362.003906 288.714844 361.257812 290.789062 361.515625 292.757812 C 361.617188 293.339844 361.96875 293.894531 362.226562 294.476562 C 363.003906 296.195312 362.9375 296.675781 361.285156 297.421875 C 360.152344 297.910156 359.476562 299.234375 358.015625 299.167969 C 357.851562 299.167969 357.566406 299.65625 357.527344 299.945312 C 357.207031 301.984375 356.652344 302.503906 354.746094 302.566406 C 353.195312 302.601562 353.03125 302.566406 352.511719 303.898438 C 351.894531 305.550781 350.703125 306.003906 349.152344 306.003906 C 347.628906 305.972656 346.109375 305.972656 344.585938 306.003906 C 344.328125 306.039062 344.097656 306.359375 343.839844 306.554688 L 342.125 306.554688 C 341.050781 305.457031 339.628906 305.421875 338.207031 305.421875 C 337.171875 305.382812 335.945312 304.257812 335.878906 303.25 C 335.878906 303.054688 335.90625 302.824219 336.007812 302.734375 C 337.789062 300.886719 338.335938 298.363281 339.601562 296.230469 C 340.246094 295.09375 341.023438 294.1875 342.09375 293.449219 C 342.90625 292.867188 343.128906 291.601562 344.359375 291.472656 C 344.394531 291.472656 344.359375 291.113281 344.421875 290.957031 C 344.746094 290.015625 345.105469 289.109375 345.003906 288.046875 C 344.941406 287.269531 344.875 286.492188 345.492188 285.683594 C 345.851562 285.164062 345.527344 284.195312 345.039062 283.382812 C 344.585938 282.570312 344.226562 281.378906 344.523438 280.566406 C 344.847656 279.53125 344.394531 278.753906 344.394531 277.878906 C 344.394531 276.613281 344.585938 275.355469 343.90625 274.089844 C 343.609375 273.507812 343.644531 272.503906 344.164062 271.664062 C 344.421875 271.238281 343.804688 270.398438 343.867188 269.75 C 344.035156 267.96875 343.25 266.417969 342.707031 264.828125 C 342.023438 262.917969 341.050781 261.171875 340.859375 259.003906 C 340.691406 257.285156 339.824219 255.472656 338.789062 253.921875 C 338.53125 253.5625 338.335938 253.175781 338.140625 252.757812 C 336.878906 249.976562 335.003906 247.679688 332.769531 245.601562 C 331.4375 244.335938 330.308594 242.847656 329.140625 241.425781 C 328.78125 241.003906 328.621094 241.167969 328.296875 241.457031 C 327.714844 242.074219 327.070312 242.621094 327.328125 243.625 C 327.558594 244.59375 327.003906 245.4375 326.488281 246.117188 C 324.675781 248.484375 323.964844 251.070312 323.320312 254.46875 C 323.253906 254.890625 323.023438 255.308594 322.765625 255.667969 C 321.566406 257.125 321.34375 259.101562 320.113281 260.554688 C 319.753906 261.007812 319.53125 261.691406 319.53125 262.273438 C 319.46875 264.375 318.304688 266.1875 318.109375 268.292969 C 317.914062 270.425781 316.910156 272.503906 316.296875 274.601562 C 316.167969 275.027344 316.003906 275.441406 315.9375 275.867188 C 315.746094 277.132812 316.167969 278.359375 315.449219 279.652344 C 314.898438 280.625 315.746094 282.046875 314.804688 283.085938 C 315.191406 285.15625 314.15625 287.070312 314.1875 289.109375 C 314.222656 290.53125 314.640625 292.082031 313.667969 293.449219 C 313.503906 293.707031 313.605469 294.195312 313.667969 294.546875 C 313.796875 295.261719 314.378906 296.199219 314.15625 296.523438 C 313.574219 297.234375 313.703125 297.917969 313.640625 298.628906 C 313.539062 299.894531 313.214844 300.3125 311.957031 300.28125 C 310.695312 300.21875 309.917969 300.511719 309.464844 301.835938 C 309.269531 302.480469 308.429688 302.90625 307.941406 303.488281 C 307.390625 304.105469 306.808594 304.457031 305.964844 304.300781 C 305.800781 304.261719 305.605469 304.335938 305.414062 304.300781 C 303.371094 303.910156 302.015625 304.816406 301.109375 306.5625 L 300.554688 306.5625 C 300.390625 306.367188 300.261719 306.046875 300.101562 306.007812 C 299.132812 305.980469 298.191406 305.878906 297.257812 306.007812 C 294.503906 306.433594 292.113281 304.910156 289.453125 304.84375 C 289.066406 304.808594 288.640625 304.484375 288.289062 304.261719 C 286.671875 303.226562 286.3125 301.769531 287.738281 300.375 C 289.351562 298.722656 290.746094 296.882812 292.851562 295.648438 C 294.632812 294.613281 295.117188 292.441406 295.929688 290.695312 C 296.898438 288.628906 297.414062 286.394531 298.125 284.195312 C 298.191406 283.964844 298.226562 283.675781 298.257812 283.417969 C 298.449219 281.507812 298.484375 279.566406 298.875 277.691406 C 299.261719 275.78125 300.332031 274.0625 300.554688 272.121094 C 301.460938 271.503906 300.75 270.375 301.203125 269.859375 C 301.785156 269.148438 301.5625 268.4375 301.691406 267.753906 C 301.855469 266.878906 302.113281 266.007812 302.242188 265.132812 C 302.34375 264.320312 302.113281 263.480469 302.796875 262.765625 C 302.960938 262.601562 302.601562 261.957031 302.503906 261.503906 C 302.207031 260.304688 301.53125 259.203125 301.660156 257.84375 C 301.957031 254.707031 300.71875 251.859375 299.65625 249.007812 C 298.234375 245.21875 296.09375 241.757812 294.28125 238.128906 C 294.152344 237.898438 294.023438 237.609375 293.828125 237.480469 C 291.5 236.28125 290.984375 233.789062 289.71875 231.820312 C 289.589844 231.589844 289.394531 231.394531 289.230469 231.171875 C 288.066406 229.457031 287.355469 227.582031 286.933594 225.574219 C 286.800781 224.992188 286.609375 224.570312 286.21875 224.152344 C 284.566406 222.304688 283.761719 220.109375 283.402344 217.613281 C 283.082031 215.445312 282.332031 213.339844 281.722656 211.203125 C 281.65625 211.011719 281.039062 210.816406 280.78125 210.910156 C 279.96875 211.234375 279.164062 211.65625 278.480469 212.175781 C 277.476562 212.988281 276.671875 213.984375 275.507812 214.632812 C 274.5 215.214844 273.824219 216.25 273.761719 217.578125 C 273.726562 218.355469 273.464844 219.167969 273.179688 219.878906 C 272.984375 220.367188 272.597656 221.011719 272.207031 221.078125 C 270.074219 221.371094 269.199219 223.117188 268.128906 224.539062 C 267.640625 225.1875 267.25 225.480469 266.476562 225.742188 C 265.050781 226.230469 263.695312 226.875 262.558594 228.003906 C 261.265625 229.332031 259.742188 230.398438 258.414062 231.660156 C 257.441406 232.632812 256.824219 234.25 255.695312 234.671875 C 254.570312 235.097656 253.5 235.742188 252.296875 236.09375 C 251.484375 236.324219 250.773438 236.9375 249.933594 237.230469 C 248.667969 237.683594 247.699219 239.363281 246.019531 238.328125 C 244.53125 239.042969 243.070312 239.171875 241.585938 238.230469 C 241.417969 238.128906 241.097656 238.328125 240.835938 238.394531 C 239.027344 238.949219 237.734375 238.816406 236.015625 238.394531 C 233.945312 237.878906 232 236.742188 229.734375 237.035156 C 228.960938 237.101562 228.148438 238.496094 227.34375 237.074219 C 226.566406 238.496094 225.792969 236.90625 224.980469 237.074219 C 223.585938 237.300781 222.261719 236.90625 220.933594 236.519531 C 219.539062 236.132812 218.117188 235.9375 216.628906 235.871094 C 215.363281 235.773438 214.136719 235.03125 212.90625 234.578125 C 212.675781 234.476562 212.417969 234.21875 212.195312 234.253906 C 208.695312 234.449219 205.5 233.25 202.324219 231.992188 C 199.894531 232.351562 197.855469 230.46875 195.398438 230.761719 C 194.648438 230.863281 193.808594 230.503906 193.097656 230.144531 C 190.539062 228.789062 187.757812 228.300781 184.90625 227.945312 C 184.195312 227.847656 183.417969 227.71875 182.902344 227.300781 C 182.191406 226.746094 182.0625 226.8125 182.0625 227.6875 C 182.0625 228.953125 182.160156 230.210938 181.570312 231.476562 C 181.3125 232.058594 181.34375 233 181.867188 233.867188 C 182.289062 234.550781 182.0625 235.679688 182.0625 236.621094 C 182.0625 236.785156 181.703125 236.914062 181.507812 237.074219 C 180.824219 237.691406 180.148438 238.300781 179.402344 238.882812 C 178.691406 239.4375 177.785156 239.824219 177.296875 240.535156 C 176.84375 241.117188 176.871094 242.058594 176.613281 242.800781 C 176.160156 244.027344 175.257812 244.933594 174.15625 245.617188 C 172.539062 246.585938 171.339844 247.878906 170.65625 249.695312 C 170.527344 250.019531 170.167969 250.277344 170.105469 250.601562 C 169.875 252.515625 169.679688 254.425781 169.550781 256.328125 C 169.449219 257.429688 169.78125 258.59375 168.609375 259.40625 C 168.414062 259.535156 168.414062 260.050781 168.378906 260.410156 C 168.351562 261.09375 168.636719 262.09375 168.316406 262.351562 C 167.4375 263.035156 168.507812 263.421875 168.378906 263.9375 C 168.25 264.363281 168.054688 264.75 167.925781 265.167969 C 166.828125 268.859375 163.910156 271.152344 161.230469 273.453125 C 157.933594 276.269531 156.992188 276.980469 155.273438 280.960938 C 155.078125 281.347656 154.71875 281.671875 154.460938 282.03125 C 153.972656 282.714844 153.425781 283.324219 152.9375 283.941406 C 151.542969 285.625 151.671875 287.175781 152.253906 289.058594 C 152.9375 291.386719 152.0625 293.527344 150.730469 295.402344 C 149.984375 296.503906 149.726562 296.503906 148.597656 295.597656 C 148.273438 295.339844 148.144531 295.171875 147.757812 295.53125 C 146.65625 296.667969 146.335938 298.183594 145.558594 299.484375 C 144.847656 300.777344 144.007812 301.878906 142.582031 302.496094 C 141.871094 302.820312 141.226562 303.371094 140.609375 303.890625 C 139.054688 305.21875 137.375 306.125 135.203125 306.023438 C 133.035156 305.921875 130.835938 306.023438 128.664062 305.996094 C 127.207031 305.996094 125.753906 306.1875 124.453125 305.152344 C 124.097656 304.859375 123.421875 304.925781 122.867188 304.859375 C 120.667969 304.664062 119.890625 303.4375 120.863281 301.425781 C 121.507812 300.09375 121.960938 298.609375 123.0625 297.472656 C 123.355469 297.179688 123.515625 296.726562 123.644531 296.308594 C 124.066406 295.015625 124.972656 294.175781 126.007812 293.335938 C 126.691406 292.78125 127.140625 291.941406 127.660156 291.199219 C 128.40625 290.101562 129.117188 288.9375 129.894531 287.828125 C 131.445312 285.695312 131.417969 282.972656 132.515625 280.671875 C 133.457031 278.667969 133.652344 276.304688 135.492188 274.78125 C 135.75 274.585938 135.878906 274.132812 135.914062 273.8125 C 136.144531 270.996094 135.816406 268.179688 135.234375 265.425781 C 135.066406 264.550781 134.875 263.679688 134.746094 262.804688 C 134.644531 261.992188 134.191406 261.214844 134.226562 260.476562 C 134.421875 257.566406 133.027344 255.070312 132.15625 252.476562 C 131.476562 250.472656 130.671875 248.433594 129.019531 246.945312 C 128.757812 246.714844 128.5 246.328125 128.527344 246.039062 C 128.628906 245.070312 127.910156 244.515625 127.363281 244.257812 C 125.101562 243.289062 122.960938 241.800781 120.246094 242.1875 C 118.785156 242.382812 118.757812 242.253906 118.238281 243.839844 C 118.175781 244.097656 117.980469 244.265625 117.851562 244.488281 C 117.621094 244.292969 117.269531 244.164062 117.140625 243.90625 C 116.652344 242.933594 116.105469 242.03125 115.328125 241.21875 C 114.035156 239.890625 112.578125 239.113281 110.703125 239.34375 C 110.3125 239.40625 109.925781 239.378906 109.539062 239.378906 C 108.078125 239.34375 108.050781 239.34375 107.433594 237.566406 C 106.722656 235.398438 104.910156 234.6875 103 234.269531 C 102.09375 234.074219 101.089844 234.234375 100.152344 234.234375 C 98.214844 234.234375 97.375 233.523438 96.589844 231.480469 C 96.488281 231.222656 96.203125 230.863281 95.941406 230.863281 C 95.101562 230.800781 94.066406 230.539062 93.449219 230.929688 C 91.832031 232.0625 90.570312 231.160156 89.5625 230.246094 C 87.882812 228.695312 85.90625 227.558594 84.058594 226.265625 C 83.765625 226.035156 83.441406 225.878906 83.183594 225.648438 C 81.464844 224.03125 79.847656 223.125 78.425781 222.832031 C 76.484375 222.40625 74.601562 221.953125 72.53125 222.570312 C 71.527344 222.867188 70.296875 222.800781 69.234375 223.152344 C 68.101562 223.578125 66.972656 224.125 65.835938 224.546875 C 64.15625 225.128906 62.953125 226.421875 61.625 227.429688 C 59.6875 228.917969 57.542969 230.144531 55.769531 231.925781 C 54.347656 233.320312 52.304688 235.972656 51.59375 237.882812 C 50.976562 239.472656 50.332031 241.023438 49.359375 242.382812 C 48.453125 243.675781 48.066406 245.097656 47.679688 246.527344 C 47.289062 247.792969 46.96875 249.085938 46.644531 250.378906 C 46.449219 251.191406 46.578125 252.191406 46.839844 253.03125 C 46.96875 253.519531 47.132812 253.84375 46.738281 254.230469 C 46.378906 254.554688 46.054688 254.914062 45.703125 255.199219 C 43.855469 256.917969 43.179688 256.945312 41.980469 254.75 C 41.425781 253.679688 40.523438 253.453125 39.679688 253.097656 C 38.675781 252.644531 38 251.996094 37.445312 251.089844 C 37.152344 250.636719 36.957031 250.121094 36.605469 249.734375 C 35.636719 248.664062 34.34375 247.726562 34.535156 246.039062 C 34.703125 244.679688 33.984375 243.222656 35.023438 241.996094 C 35.15625 239.40625 35.414062 236.8125 33.148438 234.808594 C 32.632812 234.355469 32.4375 234.613281 31.886719 234.746094 C 30.101562 235.167969 28.257812 236.039062 26.417969 234.808594 C 24.828125 235.039062 23.277344 234.679688 21.820312 234.191406 C 20.164062 233.636719 18.191406 233.804688 16.894531 232.28125 C 16.796875 232.148438 16.601562 231.957031 16.472656 231.957031 C 14.882812 232.378906 14.078125 230.820312 12.816406 230.496094 C 10.386719 229.878906 9.867188 227.910156 9.480469 225.964844 C 8.796875 222.269531 7.734375 218.742188 5.824219 215.507812 C 4.855469 213.921875 4.882812 211.816406 3.238281 210.585938 C 3.070312 210.421875 3.238281 209.839844 3.199219 209.488281 C 3.035156 208.386719 3.558594 207.253906 2.8125 206.21875 C 2.167969 205.3125 3.136719 204.019531 2.101562 203.078125 C 1.777344 202.753906 2.074219 201.785156 2.035156 201.136719 C 2.035156 199.78125 2 198.449219 1.585938 197.054688 C 1.226562 195.828125 0.355469 194.371094 1.484375 193.011719 C 1.1875 190.617188 1.871094 188.21875 0.996094 185.789062 Z M 35.960938 155.511719 C 35.441406 154.890625 35.054688 154.152344 34.535156 153.535156 C 33.984375 152.851562 33.4375 152.207031 32.820312 151.625 C 32.238281 151.042969 32.109375 150.265625 31.71875 149.648438 C 31.296875 149.027344 30.777344 147.964844 29.808594 148.253906 C 28.933594 148.484375 28.800781 149.480469 28.933594 150.359375 C 29.097656 151.6875 29.253906 153.046875 29.515625 154.375 C 29.707031 155.640625 29.414062 156.832031 29.902344 158.199219 C 30.484375 159.785156 30.226562 161.761719 30.003906 163.507812 C 29.875 164.347656 29.125 165.289062 28.414062 165.808594 C 26.957031 166.878906 27.085938 168.300781 27.28125 169.660156 C 27.410156 170.730469 27.925781 171.664062 29.21875 172.246094 C 31.324219 173.1875 33.265625 174.507812 35.851562 174.414062 C 38.34375 174.609375 40.027344 173.34375 41.097656 171.046875 C 41.160156 170.878906 41.421875 170.785156 41.421875 170.621094 C 41.585938 169.484375 41.0625 168.230469 41.9375 167.1875 C 41.484375 165.792969 41.097656 164.339844 40.542969 162.949219 C 39.410156 160.230469 37.855469 157.738281 35.945312 155.503906 Z M 21.875 191.472656 C 22.753906 191.730469 23.363281 191.242188 23.789062 190.632812 C 24.597656 189.367188 25.375 188.074219 26.023438 186.746094 C 26.214844 186.359375 25.957031 185.644531 25.699219 185.257812 C 25.597656 185.09375 24.820312 185.292969 24.433594 185.453125 C 22.945312 186.132812 21.550781 186.976562 20.453125 188.234375 C 19.871094 188.914062 19.675781 189.433594 20.066406 190.402344 C 20.453125 191.4375 21.007812 191.566406 21.875 191.472656 Z M 12.972656 226.429688 C 13.398438 227.335938 14.523438 227.953125 15.660156 227.953125 C 17.441406 227.917969 17.925781 227.113281 17.082031 225.523438 C 16.566406 224.519531 15.917969 223.585938 15.335938 222.613281 C 15.238281 222.484375 15.078125 222.386719 14.914062 222.292969 C 14.847656 222.421875 14.683594 222.585938 14.683594 222.746094 C 14.648438 223.195312 14.648438 223.6875 14.683594 224.136719 C 14.746094 224.851562 14.519531 225.109375 13.777344 225.144531 C 13.09375 225.144531 12.707031 225.921875 12.964844 226.4375 Z M 12.972656 226.429688 " fill-opacity="1" fill-rule="nonzero"/></g></svg>