<svg xmlns="http://www.w3.org/2000/svg" xmlns:xlink="http://www.w3.org/1999/xlink" width="500" zoomAndPan="magnify" viewBox="0 0 375 374.999991" height="500" preserveAspectRatio="xMidYMid meet" version="1.0"><path fill="#ffc700" d="M 80.589844 312.089844 C 82.683594 309.90625 85.820312 306.847656 90.007812 307.285156 C 94.191406 307.722656 103.609375 308.597656 107.097656 307.722656 C 110.585938 306.847656 113.378906 308.160156 114.425781 304.664062 C 115.46875 301.171875 115.820312 289.8125 118.609375 285.445312 C 121.398438 281.074219 129.074219 276.269531 130.121094 271.902344 C 131.167969 267.535156 131.515625 265.785156 130.121094 261.417969 C 128.726562 257.050781 125.585938 253.117188 121.050781 250.496094 C 116.515625 247.875 112.332031 246.128906 112.332031 246.128906 C 112.332031 246.128906 103.261719 256.613281 102.914062 259.234375 C 102.5625 261.855469 103.609375 264.476562 101.519531 265.785156 C 99.425781 267.097656 95.9375 263.164062 95.238281 256.175781 C 94.542969 249.1875 96.984375 240.886719 96.632812 236.082031 C 96.285156 231.277344 93.84375 226.910156 95.9375 222.101562 C 98.03125 217.296875 102.914062 209.871094 106.75 206.378906 C 110.585938 202.882812 117.214844 202.445312 118.261719 198.078125 C 119.308594 193.707031 111.632812 177.109375 111.632812 173.179688 C 111.632812 169.246094 112.679688 161.820312 110.238281 155.703125 C 107.796875 149.589844 105.003906 136.484375 94.542969 128.183594 C 84.078125 119.882812 76.753906 116.390625 75.007812 110.273438 C 73.265625 104.160156 74.660156 104.160156 76.753906 102.410156 C 78.84375 100.664062 71.171875 90.617188 68.730469 81.007812 C 66.289062 71.394531 62.101562 52.175781 63.847656 50.429688 C 65.589844 48.679688 70.824219 50.429688 71.871094 53.921875 C 72.914062 57.417969 77.101562 78.820312 77.101562 78.820312 C 77.101562 78.820312 76.054688 62.660156 77.800781 57.855469 C 79.542969 53.050781 81.636719 48.242188 83.730469 49.554688 C 85.820312 50.863281 84.773438 79.257812 84.773438 79.257812 C 84.773438 79.257812 86.867188 72.707031 88.261719 68.773438 C 89.660156 64.84375 90.703125 61.347656 92.449219 63.53125 C 94.191406 65.71875 92.796875 86.683594 92.796875 86.683594 C 92.796875 86.683594 95.589844 81.445312 97.679688 80.132812 C 99.773438 78.824219 100.820312 77.949219 102.214844 81.007812 C 103.609375 84.066406 103.261719 87.996094 103.261719 87.996094 C 103.261719 87.996094 104.308594 83.628906 106.75 83.628906 C 109.191406 83.628906 112.332031 84.9375 111.285156 88.433594 C 110.238281 91.925781 120.703125 88.871094 120.003906 94.984375 C 119.308594 101.101562 120.003906 106.78125 122.796875 106.78125 C 125.585938 106.78125 127.328125 111.585938 132.910156 109.835938 C 136.398438 112.457031 131.167969 128.621094 133.609375 126.4375 C 136.050781 124.253906 141.632812 122.503906 143.722656 127.3125 C 145.816406 132.117188 140.933594 137.792969 143.722656 142.164062 C 146.515625 146.53125 143.722656 150.464844 147.910156 153.957031 C 152.09375 157.453125 152.445312 154.832031 153.492188 162.695312 C 154.535156 170.558594 154.535156 174.050781 156.28125 177.109375 C 158.023438 180.167969 160.117188 182.351562 159.769531 188.90625 C 159.421875 195.457031 156.28125 201.574219 160.464844 200.699219 C 164.652344 199.824219 166.394531 194.582031 169.535156 192.398438 C 172.675781 190.214844 173.371094 189.777344 177.558594 185.847656 C 181.742188 181.914062 182.441406 176.671875 184.882812 175.363281 C 187.324219 174.050781 189.417969 174.488281 192.90625 172.742188 C 196.394531 170.996094 199.882812 167.0625 201.625 165.316406 C 203.371094 163.566406 203.371094 162.695312 206.507812 159.199219 C 209.648438 155.707031 212.789062 153.519531 214.882812 147.84375 C 216.972656 142.164062 216.625 141.726562 219.066406 133.425781 C 221.507812 125.128906 220.808594 122.507812 222.207031 119.011719 C 223.601562 115.515625 223.601562 112.460938 226.042969 109.402344 C 228.484375 106.34375 230.578125 102.847656 230.925781 105.90625 C 231.273438 108.964844 231.273438 113.332031 231.273438 115.953125 C 231.273438 118.574219 234.414062 112.023438 237.203125 105.46875 C 239.996094 98.917969 238.597656 98.042969 239.644531 92.363281 C 240.691406 86.6875 239.644531 82.753906 239.996094 76.203125 C 240.34375 69.648438 241.039062 69.210938 241.390625 59.601562 C 241.738281 49.992188 242.359375 48.378906 242.359375 41.390625 C 242.359375 34.398438 242.15625 31.574219 242.085938 26.402344 C 243.296875 22.433594 244.65625 21.222656 245.574219 21.597656 C 246.707031 21.972656 248.230469 22 249.140625 27.277344 C 249.839844 32.957031 250.46875 37.191406 251.15625 47.808594 C 250.457031 58.292969 250.109375 67.464844 251.503906 70.085938 C 252.902344 72.707031 253.945312 72.269531 254.992188 69.210938 C 256.039062 66.15625 256.039062 64.84375 257.433594 59.601562 C 258.832031 54.359375 258.742188 50.925781 259.460938 43.609375 C 259.109375 32.6875 259.527344 27.714844 259.875 19.414062 C 260.226562 11.113281 259.839844 10.871094 260.574219 5.871094 C 261.203125 1.140625 262.085938 0.0117188 265.109375 0.628906 C 266.851562 3.25 267.203125 9.804688 267.898438 15.480469 C 268.597656 21.160156 268.597656 20.722656 268.945312 31.207031 C 269.292969 41.691406 268.996094 45.878906 268.296875 49.371094 C 268.132812 53.265625 267.511719 57.136719 267.898438 58.726562 C 269.992188 56.980469 269.992188 53.921875 272.085938 47.808594 C 274.179688 41.691406 275.921875 36.449219 276.621094 29.460938 C 277.316406 22.472656 279.179688 19.910156 280.371094 12.21875 C 283.160156 4.792969 283.769531 2.996094 285.6875 2.8125 C 287.714844 4.632812 288.671875 6.273438 288.480469 11.988281 C 287.433594 18.101562 287.433594 21.160156 285.6875 27.277344 C 283.945312 33.390625 284.292969 36.011719 281.851562 42.566406 C 280.371094 48.316406 280.1875 50.269531 279.410156 52.175781 C 282.898438 52.613281 282.851562 50.878906 284.992188 47.808594 C 288.519531 39.398438 287.179688 41.167969 288.480469 38.632812 C 290.417969 33.5625 292.074219 31.695312 293.710938 32.519531 C 295.457031 36.011719 296.152344 36.886719 294.757812 40.820312 C 293.363281 44.75 294.410156 42.128906 292.316406 47.808594 C 290.222656 53.488281 288.132812 55.671875 290.921875 55.234375 C 293.710938 54.796875 294.058594 55.234375 295.804688 51.738281 C 297.546875 48.246094 295.804688 47.808594 299.640625 45.625 C 303.476562 43.441406 305.917969 39.507812 306.964844 42.566406 C 308.011719 45.625 308.363281 45.1875 305.917969 49.554688 C 303.476562 53.921875 301.035156 55.234375 302.082031 57.417969 C 303.128906 59.601562 305.917969 60.039062 308.011719 60.039062 C 310.105469 60.039062 310.453125 60.476562 309.40625 64.84375 C 308.363281 69.210938 308.011719 69.210938 307.664062 71.398438 C 307.316406 73.582031 309.058594 75.328125 309.058594 75.328125 C 309.058594 75.328125 312.199219 72.707031 309.757812 79.261719 C 307.316406 85.8125 305.917969 84.066406 304.523438 87.121094 C 303.128906 90.179688 301.734375 93.238281 303.828125 93.238281 C 305.917969 93.238281 308.011719 92.800781 307.664062 94.984375 C 307.316406 97.171875 304.175781 99.355469 305.917969 100.664062 C 307.664062 101.976562 309.058594 100.226562 310.453125 101.976562 C 311.847656 103.722656 310.453125 106.78125 310.453125 108.964844 C 310.453125 111.148438 310.105469 112.894531 310.804688 115.078125 C 311.5 117.265625 312.894531 119.449219 311.847656 121.632812 C 310.804688 123.816406 312.199219 124.253906 309.40625 126.4375 C 306.617188 128.621094 304.871094 128.183594 304.871094 130.367188 C 304.871094 132.554688 304.523438 132.117188 306.269531 133.863281 C 308.011719 135.609375 310.105469 134.300781 308.710938 138.230469 C 307.316406 142.164062 307.664062 141.726562 306.964844 145.222656 C 306.269531 148.714844 307.316406 146.96875 304.175781 155.269531 C 301.035156 163.566406 297.898438 169.683594 294.757812 171.867188 C 291.617188 174.050781 292.316406 178.855469 294.410156 179.730469 C 296.5 180.605469 296.851562 184.535156 294.757812 190.214844 C 292.664062 195.894531 290.222656 203.320312 289.527344 207.25 C 288.828125 211.183594 288.128906 211.621094 284.640625 216.425781 C 281.152344 221.230469 278.363281 225.597656 275.222656 226.910156 C 272.085938 228.21875 271.738281 232.585938 269.644531 234.773438 C 267.550781 236.957031 266.851562 238.265625 262.320312 238.265625 C 257.785156 238.265625 257.785156 236.957031 253.25 238.703125 C 248.714844 240.449219 246.621094 242.199219 246.273438 244.820312 C 245.925781 247.441406 244.527344 248.75 241.738281 247.875 C 238.949219 247.003906 241.042969 249.625 237.554688 251.371094 C 234.066406 253.117188 235.109375 255.304688 230.925781 254.867188 C 226.738281 254.429688 224.648438 250.496094 223.601562 254.867188 C 222.554688 259.234375 222.207031 262.730469 217.671875 258.796875 C 213.136719 254.867188 210.695312 244.382812 208.253906 255.304688 C 205.8125 266.222656 205.8125 268.84375 208.601562 271.902344 C 211.390625 274.960938 212.089844 277.582031 218.367188 280.640625 C 224.648438 283.699219 224.648438 287.191406 229.183594 289.375 C 233.714844 291.558594 234.066406 292.433594 241.042969 296.800781 C 248.019531 301.171875 249.761719 302.480469 253.949219 305.539062 C 258.132812 308.597656 259.179688 311.65625 260.226562 314.710938 C 261.273438 317.769531 265.808594 321.265625 264.0625 325.632812 C 262.320312 330 258.832031 327.378906 258.832031 329.566406 C 258.832031 331.75 259.527344 333.496094 258.132812 337.863281 C 256.738281 342.234375 257.085938 343.980469 252.203125 345.726562 C 247.320312 347.476562 244.53125 348.347656 242.089844 347.039062 C 239.644531 345.726562 238.949219 350.96875 236.507812 349.660156 C 234.066406 348.347656 233.019531 344.417969 231.273438 346.601562 C 229.53125 348.785156 232.671875 350.097656 228.484375 351.40625 C 224.296875 352.71875 223.949219 349.222656 223.601562 352.28125 C 223.253906 355.339844 224.648438 358.394531 220.113281 355.339844 C 215.578125 352.28125 216.972656 346.164062 213.484375 350.53125 C 209.996094 354.902344 211.742188 360.144531 205.464844 355.773438 C 199.183594 351.40625 201.277344 350.96875 196.394531 351.40625 C 191.511719 351.84375 191.511719 352.28125 189.765625 347.476562 C 188.023438 342.671875 191.511719 343.980469 183.835938 343.542969 C 176.164062 343.105469 180 349.222656 175.117188 340.921875 C 170.234375 332.621094 169.1875 324.324219 167.09375 333.496094 C 165 342.671875 167.09375 344.855469 163.957031 347.476562 C 160.816406 350.097656 144.769531 349.222656 144.769531 349.222656 C 144.769531 349.222656 144.421875 359.269531 143.027344 361.015625 C 141.632812 362.765625 138.144531 359.269531 135.003906 362.765625 C 131.863281 366.257812 133.957031 368.441406 131.167969 371.5 C 128.375 374.558594 122.796875 374.996094 122.796875 374.996094 C 122.796875 374.996094 126.632812 371.066406 127.679688 367.570312 C 128.726562 364.074219 130.121094 357.960938 130.121094 357.960938 C 130.121094 357.960938 124.539062 360.582031 122.097656 361.015625 C 119.65625 361.453125 115.820312 360.582031 115.820312 360.582031 L 116.867188 370.628906 C 116.867188 370.628906 110.238281 370.628906 110.238281 367.132812 C 110.238281 363.636719 112.332031 354.027344 114.074219 352.71875 C 115.820312 351.40625 118.261719 351.84375 118.261719 351.84375 C 118.261719 351.84375 117.5625 347.476562 119.308594 346.601562 C 121.050781 345.726562 122.097656 346.601562 124.886719 346.601562 C 127.679688 346.601562 140.234375 341.796875 140.234375 341.796875 C 140.234375 341.796875 139.886719 330.4375 141.28125 325.632812 C 142.675781 320.828125 149.304688 307.285156 146.164062 305.101562 C 143.027344 302.917969 140.585938 304.667969 138.839844 306.851562 C 137.097656 309.035156 133.957031 315.585938 127.328125 317.335938 C 120.703125 319.082031 115.46875 319.957031 115.46875 319.957031 C 115.46875 319.957031 114.074219 320.828125 114.074219 324.324219 C 114.074219 327.816406 116.515625 331.3125 113.027344 335.679688 C 109.539062 340.050781 106.75 343.980469 102.914062 341.796875 C 99.078125 339.613281 98.378906 336.992188 98.378906 336.992188 C 98.378906 336.992188 101.167969 339.175781 105.703125 337.863281 C 110.238281 336.554688 108.496094 325.632812 108.144531 323.449219 C 107.796875 321.265625 104.308594 319.082031 102.214844 321.265625 C 100.125 323.449219 97.332031 329.128906 99.078125 331.3125 C 100.820312 333.496094 94.195312 326.507812 94.542969 323.449219 C 94.890625 320.390625 95.9375 318.207031 95.9375 318.207031 C 95.9375 318.207031 91.402344 318.207031 88.613281 317.769531 C 85.820312 317.332031 83.730469 315.585938 83.730469 318.207031 C 83.730469 320.828125 85.125 332.621094 81.984375 325.195312 C 78.847656 317.769531 77.449219 316.023438 80.589844 312.09375 Z M 80.589844 312.089844 " fill-opacity="1" fill-rule="evenodd"/></svg>